# xmcd
#
# Track frame offsets:
#	180
#	16080
#	29096
#	41162
#	48812
#	62482
#	76962
#	91831
#	105094
#	117926
#	133483
#	149497
#	164163
#	179191
#	191600
#	205308
#	220015
#	232353
#	244934
#	260824
#
# Disc length: 3672 seconds
#
# Revision: 1
# Processed by: cddbd v1.5.2PL0 Copyright (c) Steve Scherf et al.
# Submitted via: audiograbber 1.83.01
#
DISCID=310e5614
DTITLE=Allerlei - Schlager Fuer Herzliche Stunden (2)
DYEAR=2006
DGENRE=A Cappella
TTITLE0=MARGOT FRIEDLÄNDER - Jeden Abend muß ich zaertlich an dich denken
TTITLE1=DETLEV LAIS - Schau mich bitte nicht so an (La Vie En Rose) 
TTITLE2=BRIGITTE RABALD UND DAS HEMMANN·QUINTETT - Das ist die Liebe auf den er
TTITLE2=sten Blick
TTITLE3=C FARELL and JOHANNES HEESTERS - So stell' ich mir die Liebe vor 
TTITLE4=MARIA VON SCHMEDES - Ich möchr' gern dein Herzklopfen hör'n
TTITLE5=LISELOTTE MALKOWSKY - Das ganze Jahr lang blühen keine Rosen
TTITLE6=THEO LINGEN and DEN PEHEIROS - Diesen Tango tanz' ich nur mit dir 
TTITLE7=CATERINA VALENTE - Ganz Paris träumt von der Liebe
TTITLE8=CATERINA VALENTE - Es ist so schön bei dir
TTITLE9=BULLY BUHLAN - Du liebst mich, Du küsst mich
TTITLE10=RENE CAROL - Ich hab' im Himmel zwei Plätze reserviert
TTITLE11=HULA HAWAIIAN QUARTETT - Am weißen Strand von Soerabaya
TTITLE12=CATERINA VALENTE and SILVIO FRANCESCO - Steig' in das Traumboot der Lieb
TTITLE12=e
TTITLE13=HILDEGARD KNEF - Ein Herz ist zu verschenken
TTITLE14=GERHARD WENDLAND - Zwei Matrosen aus Shanghai (Samoa)
TTITLE15=BULLY BUHLAN - Ich hab' noch einen Koffer in Berlin
TTITLE16=RENE CAROL - Verlieb' Dich noch heut' 
TTITLE17=GERHARD WENDLAND - Weißt Du, daß Du schön bist?
TTITLE18=KIUMA HAWAIIANS - Alo Ahe
TTITLE19=RENE CAROL - Warum denk ich nur an dich
EXTD=Inhalt Mit OCR Eingelesen
EXTT0=
EXTT1=
EXTT2=
EXTT3=
EXTT4=
EXTT5=
EXTT6=
EXTT7=
EXTT8=
EXTT9=
EXTT10=
EXTT11=
EXTT12=
EXTT13=
EXTT14=
EXTT15=
EXTT16=
EXTT17=
EXTT18=
EXTT19=
PLAYORDER=
